<svg data-v-423bf9ae="" xmlns="http://www.w3.org/2000/svg" viewBox="0 0 233.77613903945635 60" class="font"><!----><!----><defs data-v-423bf9ae=""><linearGradient data-v-423bf9ae="" gradientTransform="rotate(25)" id="e703bc13-573f-41b6-ace3-543d098da402" x1="0%" y1="0%" x2="100%" y2="0%"><stop data-v-423bf9ae="" offset="0%" style="stop-color: rgb(0, 118, 221); stop-opacity: 1;"></stop><stop data-v-423bf9ae="" offset="100%" style="stop-color: rgb(0, 205, 233); stop-opacity: 1;"></stop></linearGradient></defs><g data-v-423bf9ae="" id="17af3596-c575-473d-9ccf-254dfa1591b0" fill="url(#e703bc13-573f-41b6-ace3-543d098da402)" transform="matrix(4.4776120677666755,0,0,4.4776120677666755,-1.2537324366619629,-14.462687541127195)"><path d="M3.68 5.92C1.81 5.92 0.57 6.82 0.57 8.27C0.57 9.55 1.48 10.18 2.88 10.53C4.20 10.84 4.68 11.13 4.68 11.66C4.68 12.14 4.26 12.36 3.72 12.36C3.11 12.36 2.60 11.98 2.45 11.28L0.28 11.28C0.48 12.96 1.81 13.78 3.71 13.78C5.46 13.78 6.87 13.05 6.87 11.49C6.87 10.09 5.95 9.49 4.51 9.13C3.18 8.79 2.77 8.51 2.77 8.01C2.77 7.62 3.07 7.32 3.54 7.32C4.09 7.32 4.41 7.67 4.54 8.29L6.71 8.29C6.52 6.93 5.49 5.92 3.68 5.92ZM14.99 9.72C14.99 7.73 13.76 5.92 11.38 5.92C9.02 5.92 7.52 7.63 7.52 9.87C7.52 12.50 9.16 13.78 11.24 13.78C13.06 13.78 14.46 12.87 14.87 11.14L12.70 11.14C12.57 11.84 12.05 12.26 11.28 12.26C10.46 12.26 9.84 11.84 9.72 10.42L14.95 10.42C14.98 10.15 14.99 9.91 14.99 9.72ZM11.28 7.43C12.10 7.43 12.59 7.98 12.71 9.03L9.77 9.03C9.95 7.92 10.50 7.43 11.28 7.43ZM23.63 6.12L21.25 6.12L19.54 11.89L17.82 6.12L15.39 6.12L18.31 13.58L20.72 13.58ZM25.49 3.23C24.79 3.23 24.33 3.67 24.33 4.34C24.33 5.03 24.79 5.46 25.49 5.46C26.19 5.46 26.67 5.03 26.67 4.34C26.67 3.67 26.19 3.23 25.49 3.23ZM26.60 13.58L26.60 6.12L24.40 6.12L24.40 13.58ZM32.62 13.58L34.76 13.58C34.65 12.75 34.62 12.25 34.62 11.69L34.62 9.42C34.62 8.99 34.61 8.57 34.58 8.22C34.47 6.89 33.67 5.92 31.46 5.92C29.64 5.92 28.20 6.89 28.15 8.60L30.25 8.60C30.31 7.85 30.69 7.43 31.37 7.43C32.03 7.43 32.37 7.80 32.41 8.25C32.44 8.50 32.44 8.69 32.44 8.89L32.44 9.02L31.96 9.02C29.33 9.02 27.89 9.97 27.89 11.59C27.89 13.01 29.02 13.78 30.28 13.78C30.97 13.78 31.60 13.62 32.13 13.29L32.47 12.49ZM31.15 12.26C30.55 12.26 30.14 11.97 30.14 11.41C30.14 10.54 31.08 10.21 32.44 10.32L32.44 10.86C32.44 11.79 31.81 12.26 31.15 12.26ZM43.81 6.12L41.61 6.12L41.61 7.10L41.12 6.31C40.74 6.08 40.00 5.92 39.38 5.92C37.46 5.92 35.83 7.24 35.83 9.91C35.83 12.12 37.17 13.57 39.24 13.57C40.00 13.57 40.63 13.38 41.05 13.08L41.61 12.25L41.61 12.45C41.61 12.80 41.59 13.12 41.58 13.38C41.52 14.49 40.81 15.01 39.73 15.01C38.82 15.01 38.22 14.64 38.15 14.04L38.14 13.92L36.01 13.92L36.02 14.06C36.19 15.72 37.48 16.63 39.68 16.63C42.11 16.63 43.71 15.53 43.79 13.13C43.81 12.73 43.81 12.15 43.81 11.69ZM39.83 12.05C38.79 12.05 38.08 11.21 38.08 9.74C38.08 8.12 38.84 7.43 39.90 7.43C40.73 7.43 41.61 7.99 41.61 9.59L41.61 9.73C41.61 11.44 40.82 12.05 39.83 12.05ZM52.49 9.72C52.49 7.73 51.25 5.92 48.87 5.92C46.51 5.92 45.01 7.63 45.01 9.87C45.01 12.50 46.65 13.78 48.73 13.78C50.55 13.78 51.95 12.87 52.36 11.14L50.19 11.14C50.06 11.84 49.55 12.26 48.78 12.26C47.95 12.26 47.33 11.84 47.21 10.42L52.44 10.42C52.47 10.15 52.49 9.91 52.49 9.72ZM48.78 7.43C49.59 7.43 50.08 7.98 50.20 9.03L47.26 9.03C47.45 7.92 47.99 7.43 48.78 7.43Z"></path></g><!----><!----></svg>